<svg width="76" height="79" viewBox="0 0 76 79" fill="none" xmlns="http://www.w3.org/2000/svg">
<g filter="url(#filter0_ddd)">
<path d="M10.5293 29.6315L38.133 1.99445L41.2634 4.84363" stroke="white"/>
<path d="M29.5773 65.7699L1.97354 38.1329L4.81929 34.9988" stroke="white"/>
<path d="M65.6919 46.9951L37.8483 74.3899L34.743 71.5134" stroke="white"/>
<path d="M47.0678 10.6135L74.6716 38.2505L71.8258 41.3846" stroke="white"/>
<path d="M38.133 7.42569L38.4868 7.41241C51.7368 6.91493 63.6911 15.3067 67.7288 27.9398V27.9398" stroke="white"/>
<path d="M68.5833 38.179L68.598 38.5706C69.0939 51.8127 60.7102 63.7684 48.0939 67.8105V67.8105" stroke="white"/>
<path d="M38.2153 68.7527L37.8616 68.7629C24.6077 69.1445 12.7269 60.6487 8.79939 47.9808V47.9808" stroke="white"/>
<path d="M7.41671 39.0087L7.40204 38.617C6.90606 25.3749 15.2898 13.4193 27.9061 9.3772V9.3772" stroke="white"/>
</g>
<path d="M17.9033 35.0469L20.125 41.9717L22.3398 35.0469H25.498V45H23.0918V42.6758L23.3242 37.918L20.918 45H19.332L16.9189 37.9111L17.1514 42.6758V45H14.752V35.0469H17.9033ZM33.8491 44.2002C33.3615 44.8245 32.7029 45.1367 31.8735 45.1367C31.0623 45.1367 30.4471 44.902 30.0278 44.4326C29.6131 43.9587 29.4057 43.2796 29.4057 42.3955V37.6035H31.7095V42.4092C31.7095 43.0426 32.0171 43.3594 32.6323 43.3594C33.161 43.3594 33.5369 43.1702 33.7602 42.792V37.6035H36.0776V45H33.9175L33.8491 44.2002ZM43.7382 42.9219C43.7382 42.7259 43.6357 42.5687 43.4306 42.4502C43.2255 42.3317 42.8359 42.2087 42.2617 42.0811C41.6875 41.9535 41.2135 41.7871 40.8398 41.582C40.4661 41.3724 40.1813 41.1195 39.9853 40.8232C39.7893 40.527 39.6914 40.1875 39.6914 39.8047C39.6914 39.1257 39.9716 38.5674 40.5322 38.1299C41.0927 37.6878 41.8265 37.4668 42.7334 37.4668C43.7086 37.4668 44.4925 37.6878 45.0849 38.1299C45.6774 38.5719 45.9736 39.153 45.9736 39.873H43.663C43.663 39.2806 43.3509 38.9844 42.7265 38.9844C42.485 38.9844 42.2822 39.0527 42.1181 39.1895C41.9541 39.3216 41.872 39.488 41.872 39.6885C41.872 39.8936 41.9723 40.0599 42.1728 40.1875C42.3733 40.3151 42.6923 40.4199 43.1298 40.502C43.5719 40.584 43.9593 40.682 44.292 40.7959C45.4039 41.1787 45.9599 41.8646 45.9599 42.8535C45.9599 43.528 45.6591 44.0771 45.0576 44.501C44.4606 44.9248 43.6858 45.1367 42.7334 45.1367C42.0999 45.1367 41.5348 45.0228 41.038 44.7949C40.5413 44.5671 40.1539 44.2572 39.8759 43.8652C39.5979 43.4733 39.4589 43.0609 39.4589 42.6279H41.6123C41.6214 42.9697 41.7353 43.2204 41.9541 43.3799C42.1728 43.5348 42.4531 43.6123 42.7949 43.6123C43.1093 43.6123 43.344 43.5485 43.499 43.4209C43.6585 43.2933 43.7382 43.127 43.7382 42.9219ZM51.9936 45H49.683V37.6035H51.9936V45ZM49.5463 35.6963C49.5463 35.3682 49.6648 35.0993 49.9018 34.8896C50.1388 34.68 50.4464 34.5752 50.8246 34.5752C51.2029 34.5752 51.5105 34.68 51.7475 34.8896C51.9845 35.0993 52.103 35.3682 52.103 35.6963C52.103 36.0244 51.9845 36.2933 51.7475 36.5029C51.5105 36.7126 51.2029 36.8174 50.8246 36.8174C50.4464 36.8174 50.1388 36.7126 49.9018 36.5029C49.6648 36.2933 49.5463 36.0244 49.5463 35.6963ZM59.0663 43.3594C59.3899 43.3594 59.6405 43.2728 59.8183 43.0996C59.996 42.9219 60.0826 42.6758 60.078 42.3613H62.2382C62.2382 43.1725 61.9465 43.8379 61.3632 44.3574C60.7844 44.877 60.037 45.1367 59.121 45.1367C58.0455 45.1367 57.1978 44.7995 56.578 44.125C55.9583 43.4505 55.6484 42.5163 55.6484 41.3223V41.2266C55.6484 40.4792 55.7851 39.8206 56.0585 39.251C56.3365 38.6768 56.7353 38.237 57.2548 37.9316C57.7743 37.6217 58.3896 37.4668 59.1005 37.4668C60.0621 37.4668 60.8254 37.7334 61.3905 38.2666C61.9557 38.7998 62.2382 39.5221 62.2382 40.4336H60.078C60.078 40.0508 59.9846 39.7568 59.7978 39.5518C59.6109 39.3467 59.3603 39.2441 59.0458 39.2441C58.4488 39.2441 58.1002 39.6247 57.9999 40.3857C57.968 40.6273 57.9521 40.96 57.9521 41.3838C57.9521 42.1266 58.0409 42.6416 58.2187 42.9287C58.3964 43.2158 58.679 43.3594 59.0663 43.3594Z" fill="white"/>
<path d="M40.6719 26.7578L41.9766 19.625H44.6953L42.2812 31H39.4375L37.9141 24.5156L36.4219 31H33.5859L31.1641 19.625H33.8906L35.1953 26.7578L36.7578 19.625H39.0859L40.6719 26.7578Z" fill="white"/>
<defs>
<filter id="filter0_ddd" x="1.28326" y="1.30338" width="74.0786" height="76.7777" filterUnits="userSpaceOnUse" color-interpolation-filters="sRGB">
<feFlood flood-opacity="0" result="BackgroundImageFix"/>
<feColorMatrix in="SourceAlpha" type="matrix" values="0 0 0 0 0 0 0 0 0 0 0 0 0 0 0 0 0 0 127 0"/>
<feOffset dy="1"/>
<feColorMatrix type="matrix" values="0 0 0 0 1 0 0 0 0 1 0 0 0 0 1 0 0 0 1 0"/>
<feBlend mode="normal" in2="BackgroundImageFix" result="effect1_dropShadow"/>
<feColorMatrix in="SourceAlpha" type="matrix" values="0 0 0 0 0 0 0 0 0 0 0 0 0 0 0 0 0 0 127 0"/>
<feOffset dy="2"/>
<feColorMatrix type="matrix" values="0 0 0 0 1 0 0 0 0 1 0 0 0 0 1 0 0 0 1 0"/>
<feBlend mode="normal" in2="effect1_dropShadow" result="effect2_dropShadow"/>
<feColorMatrix in="SourceAlpha" type="matrix" values="0 0 0 0 0 0 0 0 0 0 0 0 0 0 0 0 0 0 127 0"/>
<feOffset dy="3"/>
<feColorMatrix type="matrix" values="0 0 0 0 1 0 0 0 0 1 0 0 0 0 1 0 0 0 1 0"/>
<feBlend mode="normal" in2="effect2_dropShadow" result="effect3_dropShadow"/>
<feBlend mode="normal" in="SourceGraphic" in2="effect3_dropShadow" result="shape"/>
</filter>
</defs>
</svg>
