<svg width="36" height="36" viewBox="0 0 36 36" fill="none" xmlns="http://www.w3.org/2000/svg">
<path d="M35.1581 31.9523L27.1065 23.9007C29.045 21.3201 30.0914 18.179 30.0879 14.9514C30.0879 6.70726 23.3806 0 15.1365 0C6.89232 0 0.185059 6.70726 0.185059 14.9514C0.185059 23.1956 6.89232 29.9028 15.1365 29.9028C18.364 29.9064 21.5052 28.8599 24.0858 26.9214L32.1374 34.9731C32.5449 35.3374 33.0765 35.5319 33.623 35.5166C34.1695 35.5013 34.6893 35.2774 35.0759 34.8908C35.4624 34.5043 35.6864 33.9844 35.7016 33.4379C35.7169 32.8915 35.5225 32.3599 35.1581 31.9523ZM4.45689 14.9514C4.45689 12.8392 5.08324 10.7744 6.25673 9.01816C7.43021 7.26191 9.09814 5.89308 11.0496 5.08477C13.001 4.27646 15.1483 4.06496 17.22 4.47704C19.2916 4.88911 21.1945 5.90624 22.6881 7.39981C24.1816 8.89338 25.1988 10.7963 25.6109 12.8679C26.0229 14.9396 25.8114 17.0869 25.0031 19.0383C24.1948 20.9898 22.826 22.6577 21.0697 23.8312C19.3135 25.0047 17.2487 25.631 15.1365 25.631C12.3051 25.6276 9.5907 24.5013 7.58862 22.4993C5.58655 20.4972 4.46029 17.7828 4.45689 14.9514Z" fill="#979797"/>
</svg>
